<?xml version="1.0" encoding="UTF-8" standalone="no"?>
<!-- Created with Inkscape (http://www.inkscape.org/) -->

<svg
   width="155.62737mm"
   height="161.72202mm"
   viewBox="0 0 155.62737 161.72202"
   version="1.1"
   id="svg5"
   xml:space="preserve"
   xmlns:inkscape="http://www.inkscape.org/namespaces/inkscape"
   xmlns:sodipodi="http://sodipodi.sourceforge.net/DTD/sodipodi-0.dtd"
   xmlns="http://www.w3.org/2000/svg"
   xmlns:svg="http://www.w3.org/2000/svg"><sodipodi:namedview
     id="namedview7"
     pagecolor="#ffffff"
     bordercolor="#000000"
     borderopacity="0.25"
     inkscape:showpageshadow="2"
     inkscape:pageopacity="0.0"
     inkscape:pagecheckerboard="0"
     inkscape:deskcolor="#d1d1d1"
     inkscape:document-units="mm"
     showgrid="false" /><defs
     id="defs2" /><g
     inkscape:label="Layer 1"
     inkscape:groupmode="layer"
     id="layer1"
     transform="translate(-22.17813,-80.346182)"><path
       style="fill:#000000;stroke-width:0.282858"
       d="m 103.38428,241.80606 c -13.276067,-0.93555 -26.318577,-5.94875 -37.311777,-14.34166 -3.06939,-2.34337 -8.48968,-7.56377 -10.90008,-10.49811 l -1.49808,-1.82371 0.67854,-0.58057 c 0.3732,-0.31932 12.73533,-9.85311 27.4714,-21.18619 14.73607,-11.33309 26.792857,-20.74169 26.792857,-20.908 0,-0.16631 -2.36458,-13.61428 -5.25462,-29.88439 -2.89004,-16.2701 -5.606227,-31.57047 -6.035967,-34.00083 l -0.78135,-4.41883 2.99525,-0.38974 c 3.806607,-0.49532 14.556557,-0.50462 17.986687,-0.0156 11.07161,1.57855 20.38721,5.11304 29.55857,11.215 7.69252,5.11805 13.9997,11.4246 19.10273,19.10082 5.9367,8.93025 9.25219,17.44984 11.06274,28.42714 0.79253,4.8051 0.72299,15.96143 -0.1303,20.90395 -2.69165,15.59091 -9.35427,28.32244 -20.44457,39.06736 -11.93766,11.5659 -26.83276,18.17084 -43.67489,19.36681 -4.37824,0.3109 -4.74837,0.30961 -9.61714,-0.0335 z"
       id="path248" /><path
       style="fill:#000000;stroke-width:0.282858"
       d="m 63.982203,133.92312 c -17.14393,-11.42958 -31.17077,-20.95787 -31.17077,-21.17399 0,-0.21611 0.7444,-1.52061 1.65422,-2.89889 7.85316,-11.896639 18.46654,-20.537568 31.1572,-25.366785 4.26027,-1.621171 10.71799,-3.284416 15.41941,-3.971409 l 1.13511,-0.165867 2.50112,14.206196 c 1.37562,7.813405 4.3318,24.507285 6.5693,37.097495 2.23749,12.59022 4.0315,22.92798 3.98668,22.9728 -0.0448,0.0448 -14.10834,-9.26998 -31.25227,-20.69955 z m 17.48065,-0.7126 c 0,-0.16393 -1.14956,-6.75097 -2.55458,-14.63786 -3.58306,-20.113083 -4.52345,-25.297863 -4.69148,-25.866233 -0.21133,-0.714812 -0.92591,-0.620948 -4.00986,0.526717 -6.26728,2.33231 -13.18356,6.430187 -17.45408,10.341486 -2.46532,2.25794 -6.36428,6.35496 -6.36428,6.68756 0,0.25097 34.43458,23.24638 34.81039,23.24638 0.14514,0 0.26389,-0.13412 0.26389,-0.29805 z"
       id="path254"
       inkscape:export-filename="analysis2.svg"
       inkscape:export-xdpi="96"
       inkscape:export-ydpi="96" /><path
       style="fill:#000000;stroke-width:0.282858"
       d="m 36.300563,207.79614 c -3.32431,-4.40096 -5.36939,-7.67938 -7.43416,-11.91757 -8.60408,-17.66086 -8.91891,-37.78552 -0.8736,-55.84173 1.58769,-3.56325 2.88462,-5.8749 5.90395,-10.52315 l 2.1356,-3.28774 30.14025,20.08072 c 16.57714,11.04439 30.24322,20.17488 30.36906,20.28997 0.17221,0.15749 -55.79127,43.53948 -57.34428,44.45236 -0.17203,0.10112 -1.43242,-1.31418 -2.89682,-3.25286 z m 23.69974,-25.37236 c 10.1709,-7.81408 18.72147,-14.42106 19.00126,-14.68217 0.48443,-0.45208 0.43521,-0.52354 -1.03114,-1.49715 l -1.53986,-1.0224 -6.04028,4.59304 c -3.32216,2.52618 -11.7045,8.8996 -18.62743,14.16317 -6.92293,5.26356 -12.63137,9.60828 -12.68542,9.65492 -0.23069,0.19905 1.82058,3.23198 2.11062,3.12068 0.17583,-0.0675 8.64134,-6.51601 18.81225,-14.33009 z m -12.76316,0.21947 c 5.36721,-4.0855 13.25893,-10.08324 17.53714,-13.3283 4.27822,-3.24507 7.88856,-5.99923 8.02298,-6.12037 0.13442,-0.12114 -0.45393,-0.68391 -1.30745,-1.25062 l -1.55186,-1.03037 -16.65398,12.64412 c -9.15968,6.95426 -16.81749,12.79377 -17.01735,12.97669 -0.29409,0.26914 -0.24614,0.63893 0.25139,1.93908 0.33813,0.88359 0.69258,1.60459 0.78767,1.60224 0.0951,-0.002 4.56425,-3.34697 9.93146,-7.43247 z m 3.57835,-11.95693 c 8.59837,-6.52412 15.63824,-11.92568 15.64416,-12.00346 0.0161,-0.21216 -2.40385,-1.69714 -2.76572,-1.69714 -0.29153,0 -26.61027,19.86128 -28.97726,21.86752 l -1.06476,0.90247 0.45401,1.50001 c 0.2497,0.82501 0.59399,1.45336 0.76509,1.39632 0.1711,-0.057 7.34612,-5.44161 15.94448,-11.96572 z m -4.07414,-5.80913 c 7.19561,-5.4708 13.19292,-10.04627 13.32734,-10.16773 0.13442,-0.12146 -0.46975,-0.69501 -1.3426,-1.27455 l -1.587,-1.05371 -5.44598,4.13868 c -2.99528,2.27627 -8.49921,6.46261 -12.23095,9.30297 -3.82575,2.91192 -6.82957,5.39646 -6.88721,5.69662 -0.0562,0.29278 -0.0157,1.22524 0.0901,2.07214 0.14541,1.16385 0.29016,1.50229 0.59285,1.38614 0.22026,-0.0845 6.28779,-4.62978 13.4834,-10.10056 z m -3.656,-6.59497 c 5.70606,-4.343 10.37465,-7.99635 10.37465,-8.11856 0,-0.12221 -0.57623,-0.61865 -1.2805,-1.10321 l -1.28051,-0.881 -1.06856,0.7967 c -0.58771,0.43819 -4.70334,3.56533 -9.14585,6.9492 l -8.0773,6.15249 -0.17832,1.48465 c -0.24226,2.01688 -0.22762,2.82265 0.0493,2.71036 0.12787,-0.0519 4.90109,-3.64764 10.60714,-7.99063 z m -2.50172,-7.06791 c 3.65943,-2.78534 6.65351,-5.15868 6.65351,-5.27408 0,-0.42373 -2.8092,-2.01132 -3.17199,-1.79261 -0.20005,0.12059 -2.4287,1.79116 -4.95255,3.71237 -4.22672,3.21745 -4.61318,3.58699 -4.89739,4.68298 -0.16972,0.65444 -0.427,1.63539 -0.57174,2.17989 -0.33844,1.27313 -0.33539,1.76783 0.0102,1.65 0.15207,-0.0519 3.27057,-2.37321 6.93,-5.15855 z m -1.17684,-8.34869 c 0.72855,-0.53198 1.32463,-1.06573 1.32463,-1.1861 0,-0.28023 -1.1622,-1.09952 -1.55972,-1.09952 -0.29989,0 -1.83456,2.85643 -1.83456,3.41461 0,0.33677 0.24617,0.20249 2.06965,-1.12899 z"
       id="path256" /></g></svg>
