<?xml version="1.0" encoding="UTF-8" standalone="no"?>
<!-- Created with Inkscape (http://www.inkscape.org/) -->

<svg
   width="124.13115mm"
   height="138.67113mm"
   viewBox="0 0 124.13115 138.67113"
   version="1.1"
   id="svg5"
   xml:space="preserve"
   sodipodi:docname="analysis_white.svg"
   xmlns:inkscape="http://www.inkscape.org/namespaces/inkscape"
   xmlns:sodipodi="http://sodipodi.sourceforge.net/DTD/sodipodi-0.dtd"
   xmlns="http://www.w3.org/2000/svg"
   xmlns:svg="http://www.w3.org/2000/svg"><sodipodi:namedview
     id="namedview7"
     pagecolor="#ffffff"
     bordercolor="#000000"
     borderopacity="0.25"
     inkscape:showpageshadow="2"
     inkscape:pageopacity="0.0"
     inkscape:pagecheckerboard="0"
     inkscape:deskcolor="#d1d1d1"
     inkscape:document-units="mm"
     showgrid="false" /><defs
     id="defs2" /><g
     inkscape:label="Layer 1"
     inkscape:groupmode="layer"
     id="layer1"
     transform="translate(134.52088,-105.13959)"><path
       style="fill:#ffffff;stroke-width:0.282858"
       d="m -84.810939,243.54861 c -13.276067,-0.93555 -26.318581,-5.94875 -37.311781,-14.34166 -3.06939,-2.34337 -8.48968,-7.56377 -10.90008,-10.49811 l -1.49808,-1.82371 0.67854,-0.58057 c 0.3732,-0.31932 12.73533,-9.85311 27.4714,-21.18619 14.736074,-11.33309 26.792861,-20.74169 26.792861,-20.908 0,-0.16631 -2.36458,-13.61428 -5.25462,-29.88439 -2.89004,-16.2701 -5.606227,-31.57047 -6.035967,-34.00083 l -0.78135,-4.41883 2.99525,-0.38974 c 3.806607,-0.49532 14.556557,-0.50462 17.986687,-0.0156 11.07161,1.57855 20.38721,5.11304 29.55857,11.215 7.69252,5.11805 13.9997,11.4246 19.10273,19.10082 5.9367,8.93025 9.25219,17.44984 11.06274,28.42714 0.79253,4.8051 0.72299,15.96143 -0.1303,20.90395 -2.69165,15.59091 -9.35427,28.32244 -20.44457,39.06736 -11.93766,11.5659 -26.83276,18.17084 -43.67489,19.36681 -4.37824,0.3109 -4.74837,0.30961 -9.61714,-0.0335 z"
       id="path248"
       inkscape:export-filename="analisys_white_3.png"
       inkscape:export-xdpi="96"
       inkscape:export-ydpi="96" /></g></svg>
