<?xml version="1.0" encoding="UTF-8" standalone="no"?>
<!-- Created with Inkscape (http://www.inkscape.org/) -->

<svg
   width="62.423859mm"
   height="74.276649mm"
   viewBox="0 0 62.423861 74.276652"
   version="1.1"
   id="svg5"
   xml:space="preserve"
   xmlns="http://www.w3.org/2000/svg"
   xmlns:svg="http://www.w3.org/2000/svg"><defs
     id="defs2" /><g
     id="layer1"
     transform="translate(155.38379,-82.088727)"><path
       style="fill:#ffffff;stroke-width:0.282858"
       d="m -124.21302,135.66567 c -17.14393,-11.42958 -31.17077,-20.95787 -31.17077,-21.17399 0,-0.21611 0.7444,-1.52061 1.65422,-2.89889 7.85316,-11.896641 18.46654,-20.53757 31.1572,-25.366787 4.26027,-1.621171 10.71799,-3.284416 15.41941,-3.971409 l 1.13511,-0.165867 2.50112,14.206196 c 1.37562,7.813407 4.331804,24.507287 6.569304,37.097497 2.23749,12.59022 4.0315,22.92798 3.98668,22.9728 -0.0448,0.0448 -14.108344,-9.26998 -31.252274,-20.69955 z m 17.48065,-0.7126 c 0,-0.16393 -1.14956,-6.75097 -2.55458,-14.63786 -3.58306,-20.11308 -4.52345,-25.297865 -4.69148,-25.866235 -0.21133,-0.714812 -0.92591,-0.620948 -4.00986,0.526717 -6.26728,2.33231 -13.18356,6.430188 -17.45408,10.341488 -2.46532,2.25794 -6.36428,6.35496 -6.36428,6.68756 0,0.25097 34.43458,23.24638 34.81039,23.24638 0.14514,0 0.26389,-0.13412 0.26389,-0.29805 z"
       id="path254" /></g></svg>
