<?xml version="1.0" encoding="UTF-8" standalone="no"?>
<!-- Created with Inkscape (http://www.inkscape.org/) -->

<svg
   width="149.56598mm"
   height="149.69562mm"
   viewBox="0 0 149.56598 149.69562"
   version="1.1"
   id="svg5"
   xml:space="preserve"
   xmlns:inkscape="http://www.inkscape.org/namespaces/inkscape"
   xmlns:sodipodi="http://sodipodi.sourceforge.net/DTD/sodipodi-0.dtd"
   xmlns="http://www.w3.org/2000/svg"
   xmlns:svg="http://www.w3.org/2000/svg"><sodipodi:namedview
     id="namedview7"
     pagecolor="#ffffff"
     bordercolor="#000000"
     borderopacity="0.25"
     inkscape:showpageshadow="2"
     inkscape:pageopacity="0.0"
     inkscape:pagecheckerboard="0"
     inkscape:deskcolor="#d1d1d1"
     inkscape:document-units="mm"
     showgrid="false"
     showguides="false"
     inkscape:zoom="0.23384891"
     inkscape:cx="474.66547"
     inkscape:cy="615.78223"
     inkscape:window-width="1366"
     inkscape:window-height="705"
     inkscape:window-x="-8"
     inkscape:window-y="-8"
     inkscape:window-maximized="1"
     inkscape:current-layer="layer1" /><defs
     id="defs2" /><g
     inkscape:label="Layer 1"
     inkscape:groupmode="layer"
     id="layer1"
     transform="translate(-406.06574,-92.498258)"><path
       style="fill:#00338f;fill-opacity:1;stroke-width:0.282858"
       d="m 475.83709,241.92314 c -3.87043,-0.24679 -6.53875,-0.60404 -10.69031,-1.4313 -2.98127,-0.59407 -7.72416,-1.87248 -8.20285,-2.21102 -0.15557,-0.11002 -0.91929,-0.42774 -1.69714,-0.70604 -2.21197,-0.79138 -7.54671,-3.05054 -8.48572,-3.59353 -0.46669,-0.26988 -1.77667,-1.01343 -2.91102,-1.65233 -11.29631,-6.36243 -22.00005,-17.09688 -28.06647,-28.14698 -0.51245,-0.93343 -1.09249,-1.88808 -1.289,-2.12143 -0.77745,-0.92331 -4.1951,-9.26907 -5.38617,-13.15286 -3.50986,-11.44486 -4.01183,-25.52275 -1.35655,-38.04429 0.53068,-2.50244 1.79186,-7.02377 2.12934,-7.63353 0.13026,-0.23535 0.81029,-1.90658 1.51117,-3.71387 0.70091,-1.80728 1.66304,-4.09843 2.1381,-5.09143 6.07597,-12.70026 18.01172,-25.40213 30.11918,-32.05251 1.089,-0.59817 2.17094,-1.25014 2.4043,-1.44883 0.49673,-0.42294 6.11142,-2.859989 8.76855,-3.805969 1.01122,-0.36001 1.96586,-0.74577 2.12143,-0.85725 0.35904,-0.25727 4.75343,-1.49313 7.37759,-2.07485 12.07574,-2.67695 27.2868,-2.13083 38.30384,1.3752 4.06384,1.29326 12.14495,4.623739 13.01144,5.362419 0.23336,0.19894 1.31527,0.85111 2.40427,1.44928 10.75227,5.90599 21.80759,16.95669 27.7129,27.70134 0.59852,1.08901 1.24839,2.17093 1.44415,2.40429 0.43733,0.52132 2.45018,5.09346 3.42448,7.77857 0.39515,1.089 0.96327,2.5243 1.26248,3.18955 0.7592,1.68792 2.09823,7.17412 2.77816,11.38228 1.34556,8.32818 1.28722,17.58757 -0.16397,26.01817 -0.51577,2.99639 -1.9926,8.88884 -2.51454,10.03289 -0.21508,0.47141 -0.96922,2.3358 -1.67587,4.14309 -1.99181,5.09404 -3.84694,8.69306 -6.83554,13.26116 -5.74352,8.77904 -15.26186,17.94166 -23.87653,22.9842 -1.47794,0.8651 -3.19627,1.88695 -3.81857,2.27079 -1.15766,0.71406 -5.95014,2.82119 -8.48572,3.73093 -0.77785,0.27909 -1.93847,0.74039 -2.57913,1.02512 -1.69013,0.75115 -7.33827,2.1297 -11.4223,2.78787 -3.18815,0.5138 -11.51213,1.20347 -13.29428,1.10148 -0.38891,-0.0222 -2.26079,-0.13953 -4.1597,-0.26061 z m 13.21112,-8.40518 c 1.16679,-0.17775 3.23519,-0.53439 4.59645,-0.79255 l 2.47499,-0.46937 v -2.65205 c 0,-2.47745 -0.0378,-2.65206 -0.57481,-2.65206 -0.8968,0 -2.59786,-0.8023 -3.48014,-1.64143 -1.52892,-1.45415 -1.88505,-2.64539 -1.88505,-6.30559 0,-3.02176 0.0653,-3.44101 0.73869,-4.73883 0.43735,-0.843 1.20578,-1.74785 1.88381,-2.21825 1.08958,-0.75592 1.32474,-0.79905 4.84682,-0.88904 4.1792,-0.10679 5.37072,0.13732 6.8013,1.39337 1.57263,1.38079 1.92627,2.73831 1.81057,6.95019 -0.0834,3.03652 -0.19489,3.79295 -0.68077,4.62005 -0.70475,1.19968 -2.11654,2.19259 -3.73256,2.62512 l -1.20214,0.32175 v 1.92133 c 0,2.1939 -0.0116,2.18684 2.30614,1.38938 5.67362,-1.952 15.63754,-7.50084 19.55025,-10.88738 6.82334,-5.90575 10.29943,-9.76402 14.30382,-15.87638 2.12884,-3.24949 2.98445,-4.86536 5.87883,-11.10248 2.31974,-4.99886 4.47416,-14.89701 4.83285,-22.20395 l 0.13539,-2.75785 h -7.94649 -7.9465 v 6.02276 6.02276 l 1.31374,0.35137 c 1.87139,0.50053 2.89583,1.33621 3.66622,2.99068 0.58663,1.25984 0.67199,1.86428 0.6744,4.77508 0.004,4.45976 -0.55933,5.7814 -3.17376,7.44976 -0.9675,0.61742 -1.34993,0.6733 -4.60769,0.6733 -3.05411,0 -3.7197,-0.084 -4.74348,-0.59867 -2.86194,-1.43875 -3.31229,-2.45341 -3.31229,-7.46276 0,-3.27697 0.0827,-4.00322 0.56309,-4.94488 0.7135,-1.39858 2.04538,-2.41849 3.7556,-2.8759 l 1.33845,-0.35798 v -6.02276 -6.02276 l -3.60643,-0.006 c -4.04437,-0.007 -5.34538,-0.38477 -7.09557,-2.06051 -2.45994,-2.35528 -2.59229,-3.28168 -2.59229,-18.14621 v -12.5482 l -0.87026,-0.73229 -0.8703,-0.73228 h -6.58323 c -7.2314,0 -7.82523,-0.0991 -9.71507,-1.62106 -2.07947,-1.67468 -2.42488,-2.68802 -2.55691,-7.50108 -0.10684,-3.89425 -0.15084,-4.17215 -0.66061,-4.17215 -1.63552,0 -4.22304,-2.26879 -4.74946,-4.16441 -0.38743,-1.39507 -0.3815,-6.1374 0.01,-7.54534 0.45032,-1.62189 1.38173,-2.88839 2.6607,-3.6179 0.95687,-0.54579 1.63444,-0.66123 4.39177,-0.74821 3.67569,-0.11595 5.20747,0.18318 6.49777,1.26888 1.66732,1.40298 1.98045,2.46478 1.98045,6.71587 0,2.09628 -0.13578,4.16975 -0.3017,4.6077 -0.58645,1.54778 -2.83303,3.35313 -4.39438,3.53131 l -0.81963,0.0935 -0.0806,2.90288 c -0.10025,3.60888 0.22604,4.97986 1.28466,5.39787 0.45998,0.18163 3.59815,0.33927 7.70599,0.38711 l 6.92999,0.0807 1.27286,0.88924 c 1.73263,1.21042 2.40406,1.98181 3.16833,3.64 0.64495,1.39925 0.65083,1.51691 0.72036,14.42219 0.0386,7.15629 0.13586,13.29551 0.21624,13.64271 0.33502,1.44729 0.76483,1.49015 14.94364,1.49015 10.29838,0 13.16615,-0.0769 13.27328,-0.35612 0.0752,-0.19586 0.0264,-0.99139 -0.10835,-1.76785 -0.13475,-0.77646 -0.50689,-3.09862 -0.82696,-5.16035 -1.40967,-9.08049 -4.70926,-17.39393 -10.1977,-25.69346 -2.51259,-3.79953 -3.65106,-5.14735 -8.31882,-9.84866 -4.50366,-4.53602 -6.64874,-6.30824 -11.03143,-9.11402 -3.46818,-2.2203 -10.27694,-5.63501 -13.54188,-6.79147 -6.64051,-2.35213 -14.50263,-3.61946 -22.52241,-3.63049 -9.97779,-0.0137 -18.40722,1.71804 -26.8232,5.51059 -5.93357,2.67391 -10.61016,5.44049 -14.46686,8.55834 -2.29827,1.85799 -9.28028,8.85457 -11.24101,11.26445 -1.53789,1.89021 -3.8877,5.39805 -5.5871,8.34047 -1.56855,2.71592 -5.52468,11.64443 -5.52468,12.46856 0,0.0534 4.9005,0.0971 10.88998,0.0971 h 10.89002 v -7.73362 c 0,-8.41356 0.14668,-9.48676 1.54762,-11.32348 0.42582,-0.5583 1.47339,-1.35508 2.33723,-1.77772 1.42369,-0.69655 1.94897,-0.78044 5.79953,-0.92627 l 4.23407,-0.16034 0.52107,-1.37499 c 0.60788,-1.60402 1.14753,-2.26636 2.597,-3.18742 0.97586,-0.62011 1.34167,-0.67045 4.87169,-0.67045 3.49028,0 3.92004,0.0575 5.02634,0.67224 0.66535,0.36973 1.59158,1.20806 2.0583,1.86294 l 0.84857,1.19069 v 4.14778 c 0,4.01031 -0.0257,4.19141 -0.77385,5.46418 -1.25979,2.14298 -2.61303,2.6436 -7.14616,2.6436 -3.17976,0 -3.83016,-0.0799 -4.80856,-0.59091 -1.42436,-0.74389 -2.68108,-2.4982 -2.88645,-4.02933 l -0.15803,-1.17833 h -4.03286 c -3.54888,0 -4.11298,0.0649 -4.70062,0.54059 l -0.66775,0.5406 -0.0789,17.51492 c -0.0851,18.89407 -0.0536,19.36256 1.35179,20.07257 0.41333,0.20883 1.77919,0.359 3.28742,0.36143 l 2.58027,0.004 0.18997,-1.20215 c 0.28144,-1.78106 1.31159,-3.13948 3.0303,-3.99594 1.35062,-0.67304 1.79485,-0.74191 4.78536,-0.74191 4.53154,0 5.79681,0.49884 7.40214,2.91836 0.75705,1.14098 0.78502,1.31404 0.78618,4.86458 0,3.32055 -0.0641,3.80589 -0.66508,4.95 -0.40627,0.77341 -1.1915,1.62726 -2.01197,2.18777 l -1.34567,0.91929 h -3.83874 c -3.32292,0 -4.00378,-0.0799 -5.06714,-0.59467 -1.46534,-0.70936 -2.45845,-1.93659 -2.89501,-3.57748 l -0.31983,-1.20214 h -2.76633 c -4.59234,0 -6.65935,-1.01705 -8.33556,-4.10143 -0.58116,-1.06938 -0.62265,-1.58896 -0.75631,-9.4757 l -0.14142,-8.34429 h -11.44416 -11.44413 l -0.35541,1.69715 c -0.93234,4.45185 -1.3234,8.21148 -1.39753,13.43571 -0.043,3.03364 0.036,6.15214 0.17573,6.93 0.13973,0.77786 0.45302,2.81443 0.6962,4.52572 0.68948,4.85191 2.24666,10.64139 3.76592,14.00142 3.09719,6.84976 5.78694,11.64645 8.40621,14.99104 3.50893,4.48058 7.98677,9.0843 12.16708,12.50912 4.75091,3.89233 14.13928,9.0343 19.93723,10.91955 3.14338,1.0221 7.36406,2.00162 10.60714,2.46166 1.71127,0.24275 3.62056,0.54603 4.24286,0.67395 1.60732,0.33041 12.3191,0.18769 14.84998,-0.19786 z m 12.38914,-11.43117 c 0.35531,-0.3553 0.48969,-5.16279 0.16775,-6.00172 -0.14206,-0.37018 -0.70477,-0.44742 -3.25985,-0.44742 -3.0547,0 -3.09116,0.008 -3.36402,0.72556 -0.15174,0.39905 -0.27586,1.69371 -0.27586,2.87701 0,3.02407 0.18624,3.186 3.6644,3.186 1.74477,0 2.85052,-0.12235 3.06758,-0.33943 z m 31.20853,-31.39183 c 0.33896,-0.53454 0.30089,-5.25615 -0.0476,-5.90733 -0.25757,-0.48125 -0.61238,-0.54712 -2.94687,-0.54712 -1.45974,0 -2.85541,0.0773 -3.10148,0.17169 -0.62603,0.24023 -0.66595,6.18342 -0.0439,6.53211 0.68784,0.38555 5.87073,0.17506 6.13984,-0.24935 z m -70.52566,-16.69388 c 0.21764,-0.21765 0.33943,-1.33036 0.33943,-3.10148 0,-2.44126 -0.0635,-2.79605 -0.54711,-3.05486 -0.77718,-0.41592 -5.7599,-0.37836 -6.1849,0.0466 -0.21685,0.21685 -0.33943,1.32 -0.33943,3.05485 0,1.73486 0.12258,2.838 0.33943,3.05486 0.21921,0.21919 1.35144,0.33943 3.1963,0.33943 1.84486,0 2.9771,-0.12024 3.19628,-0.33943 z m 2.14775,-43.38513 c 0.0944,-0.24609 0.17169,-1.64175 0.17169,-3.10148 0,-2.3345 -0.0659,-2.68931 -0.54713,-2.94687 -0.77483,-0.41467 -5.47788,-0.37752 -5.90201,0.0466 -0.36237,0.36236 -0.49617,5.91527 -0.15087,6.26057 0.10372,0.10372 1.55388,0.18858 3.2226,0.18858 2.50569,0 3.0639,-0.0779 3.20572,-0.44742 z M 498.6088,115.1668 c 0.22167,-0.22168 0.33943,-1.38871 0.33943,-3.36403 0,-2.4971 -0.0781,-3.05454 -0.44744,-3.19628 -0.71307,-0.27364 -5.3083,-0.19009 -5.77543,0.105 -0.52848,0.33384 -0.76292,4.84467 -0.31273,6.01687 0.29784,0.77552 0.3071,0.77786 3.07774,0.77786 1.78429,0 2.90049,-0.12149 3.11843,-0.33942 z"
       id="path2541"
       inkscape:export-filename="ml_grey.svg"
       inkscape:export-xdpi="96"
       inkscape:export-ydpi="96" /><path
       style="fill:#00338f;fill-opacity:1;stroke-width:0.282858"
       d="m 442.80108,219.77086 c -1.50352,-0.65622 -2.87951,-2.47687 -3.26305,-4.31759 -0.49197,-2.361 -0.21212,-6.75919 0.52078,-8.18458 0.9947,-1.93464 2.88935,-3.22818 4.72829,-3.22818 0.61925,0 0.63087,-0.0717 0.76692,-4.73786 0.11824,-4.0547 0.23212,-4.98241 0.7897,-6.4339 0.91914,-2.3927 3.16997,-4.68428 5.92317,-6.03044 l 2.13133,-1.04209 16.41874,-0.14143 c 18.23263,-0.15705 17.29907,-0.0529 18.52655,-2.06608 0.4893,-0.80246 0.55129,-1.44537 0.55221,-5.72805 v -4.82412 l -2.0674,-0.34739 c -3.79624,-0.63788 -7.48056,-3.72854 -8.6343,-7.24305 -0.51647,-1.57329 -0.61257,-2.52236 -0.61257,-6.04949 v -4.18344 l -1.4247,-0.36514 c -2.95153,-0.75645 -4.23854,-3.08416 -4.22553,-7.64243 0.0122,-4.25107 0.84191,-6.21937 3.10962,-7.37628 1.57425,-0.80311 8.03424,-0.81761 9.78631,-0.022 1.51619,0.68854 2.55667,2.0872 2.96336,3.98354 0.44103,2.05643 0.18796,6.5882 -0.45577,8.16201 -0.62447,1.52672 -2.26799,2.77373 -3.99746,3.03308 l -1.26892,0.19029 0.0901,4.27854 c 0.10898,5.17435 0.39788,5.93986 2.89576,7.67283 l 1.63081,1.13143 9.23748,0.14733 c 9.08359,0.14487 9.26105,0.15887 10.65178,0.84015 2.11473,1.03598 3.57243,2.30805 4.58446,4.00072 1.49487,2.50024 1.77983,4.17851 1.77983,10.48218 v 5.59295 l 1.34355,0.68133 c 1.6632,0.84342 2.10362,1.3233 3.01863,3.28912 0.61918,1.33023 0.72411,1.95195 0.72647,4.30459 0.003,3.22943 -0.69006,5.21891 -2.2883,6.56645 -1.5798,1.33197 -2.49984,1.57375 -5.98858,1.57375 -2.90063,0 -3.34971,-0.0714 -4.70882,-0.74867 -1.07206,-0.53424 -1.7404,-1.1216 -2.33344,-2.05071 l -0.83108,-1.30205 0.0858,-4.26483 c 0.0806,-4.00477 0.1289,-4.32939 0.79293,-5.32345 0.83632,-1.25199 2.96008,-2.43314 4.37488,-2.43314 h 0.99941 v -6.09052 c 0,-6.49943 -0.15211,-7.39907 -1.49852,-8.86365 -1.36088,-1.48033 -2.46404,-1.72146 -7.90649,-1.72819 l -5.02071,-0.006 v 4.22893 c 0,2.32592 -0.14298,4.90345 -0.31771,5.72786 -0.66812,3.1521 -2.38892,5.36884 -5.12394,6.60069 -1.60986,0.72507 -2.15768,0.81246 -6.01406,0.95941 l -4.24286,0.16168 -0.0785,4.03071 c -0.0761,3.90641 -0.0605,4.03072 0.50409,4.03072 0.84031,0 2.56982,0.77458 3.34592,1.4985 1.4633,1.36496 1.74418,2.42179 1.74418,6.56293 0,4.93777 -0.42343,5.9287 -3.19074,7.46701 -0.92408,0.51367 -1.5412,0.59441 -4.54332,0.59441 -3.9589,0 -5.11188,-0.36538 -6.63808,-2.10361 -1.28026,-1.45814 -1.54662,-2.68932 -1.41681,-6.54873 0.0932,-2.77254 0.22283,-3.57772 0.73186,-4.54741 0.74581,-1.42071 1.80269,-2.21892 3.5605,-2.68907 l 1.31373,-0.35136 v -4.04277 -4.04276 h -9.62842 c -10.84847,0 -10.71391,-0.0234 -12.9961,2.25882 -1.3681,1.36809 -1.46605,1.88452 -1.36062,7.17283 l 0.0837,4.19879 1.08752,0.37353 c 1.35315,0.46475 2.33119,1.36044 3.08583,2.82603 0.74187,1.44076 1.0192,5.96557 0.50615,8.25807 -0.39733,1.77547 -1.83796,3.60758 -3.32685,4.23088 -1.22279,0.51191 -7.80991,0.50351 -8.9898,-0.0115 z m 7.71758,-7.5048 c 0.0596,-2.39393 -0.0138,-3.28983 -0.28287,-3.46067 -0.42129,-0.26731 -5.05121,-0.32198 -5.71444,-0.0675 -0.37121,0.14246 -0.44741,0.71248 -0.44741,3.34715 0,1.74649 0.0889,3.26435 0.19756,3.37302 0.10867,0.10866 1.54065,0.1617 3.18215,0.11786 l 2.98458,-0.0797 z m 29.13869,-2.34212 c 0.2217,-0.22168 0.33944,-1.38871 0.33944,-3.36403 0,-2.4971 -0.078,-3.05454 -0.44741,-3.19628 -0.24609,-0.0944 -1.64174,-0.17169 -3.10147,-0.17169 -2.3345,0 -2.68933,0.0659 -2.94688,0.54711 -0.33764,0.63087 -0.39137,5.36559 -0.0667,5.87646 0.13742,0.21623 1.2029,0.3768 2.89496,0.4363 1.47262,0.0518 2.74752,0.12056 2.83308,0.15285 0.0856,0.0323 0.30832,-0.094 0.49498,-0.28072 z m 33.97467,-9.10645 c 0.21553,-0.25969 0.29986,-1.44349 0.24678,-3.465 l -0.0806,-3.07055 h -3.11142 -3.11142 l -0.08,3.18781 c -0.0776,3.09029 -0.0603,3.19574 0.56571,3.44707 1.07267,0.43066 5.1921,0.35721 5.57098,-0.0993 z m -29.53379,-53.63127 v -3.25286 h -3.11142 -3.11145 l -0.0812,2.95088 c -0.0447,1.62299 -0.0151,3.12292 0.0655,3.3332 0.11343,0.29557 0.83778,0.36409 3.1926,0.30198 l 3.04591,-0.0803 z"
       id="path2543" /></g></svg>
