<?xml version="1.0" encoding="UTF-8" standalone="no"?>
<!-- Created with Inkscape (http://www.inkscape.org/) -->

<svg
   width="148.43298mm"
   height="149.87766mm"
   viewBox="0 0 148.43298 149.87766"
   version="1.1"
   id="svg5"
   xml:space="preserve"
   xmlns:inkscape="http://www.inkscape.org/namespaces/inkscape"
   xmlns:sodipodi="http://sodipodi.sourceforge.net/DTD/sodipodi-0.dtd"
   xmlns="http://www.w3.org/2000/svg"
   xmlns:svg="http://www.w3.org/2000/svg"><sodipodi:namedview
     id="namedview7"
     pagecolor="#ffffff"
     bordercolor="#000000"
     borderopacity="0.25"
     inkscape:showpageshadow="2"
     inkscape:pageopacity="0.0"
     inkscape:pagecheckerboard="0"
     inkscape:deskcolor="#d1d1d1"
     inkscape:document-units="mm"
     showgrid="false"
     showguides="false" /><defs
     id="defs2" /><g
     inkscape:label="Layer 1"
     inkscape:groupmode="layer"
     id="layer1"
     transform="translate(-226.49433,-82.839529)"><path
       style="fill:#ffffff;fill-opacity:1;stroke-width:0.32442"
       d="m 249.88878,193.46783 -6.83835,-0.1825 -2.76715,-1.37172 c -4.90652,-2.43222 -8.20003,-6.65251 -10.44903,-13.38933 -4.06991,-12.1914 -4.4348,-26.26904 -1.01468,-39.1497 2.36381,-8.90232 7.09695,-14.37385 14.9826,-17.31982 l 2.54354,-0.95023 19.95175,-0.002 c 10.97344,-9e-4 23.12697,-0.0978 27.00783,-0.21505 l 7.05611,-0.21306 v -2.00947 -2.00945 l -2.48209,-0.20981 c -1.36515,-0.11543 -9.41578,-0.20984 -17.89029,-0.20984 h -15.40823 l 0.18605,-9.32703 c 0.19516,-9.782848 0.42636,-11.555092 1.87882,-14.402137 2.59646,-5.089503 10.99367,-8.474721 23.20623,-9.355244 9.40552,-0.678141 23.71993,-0.202911 29.07187,0.96517 3.5983,0.785338 8.76987,3.22538 11.06406,5.220231 2.14722,1.867038 4.57601,5.428606 5.4738,8.026744 l 0.74806,2.164709 v 20.438377 20.43837 l -0.76903,2.10872 c -1.01643,2.78712 -3.25099,6.12073 -5.33339,7.95658 -0.92601,0.81637 -2.91349,2.09738 -4.41662,2.84671 l -2.73296,1.36241 -12.02808,0.21367 c -6.61546,0.11752 -16.56466,0.22701 -22.10932,0.24331 -9.84212,0.0289 -10.13744,0.0488 -12.44825,0.83471 -3.82885,1.30227 -6.41075,2.93426 -9.45808,5.97836 -2.24155,2.23912 -3.05397,3.32896 -4.13313,5.54449 -2.20903,4.53511 -2.3229,5.3415 -2.3229,16.4513 v 9.82661 l -1.86542,-0.0608 c -1.02597,-0.0335 -4.94264,-0.14293 -8.70372,-0.24331 z M 283.0929,106.3174 c 0.9982,-0.49742 2.08231,-1.38239 2.68262,-2.18982 0.95313,-1.28202 1.00172,-1.48915 0.90154,-3.84308 -0.0914,-2.147266 -0.23901,-2.676499 -1.07792,-3.864132 -2.61677,-3.704537 -8.16179,-3.550221 -10.70842,0.298009 -2.06726,3.123827 -0.9766,7.700883 2.23018,9.359173 2.47502,1.27988 3.77978,1.33228 5.972,0.23985 z"
       id="path1378"
       inkscape:export-filename="python_white.svg"
       inkscape:export-xdpi="96"
       inkscape:export-ydpi="96" /><path
       style="fill:#ffffff;fill-opacity:1;stroke-width:0.32442"
       d="m 290.95327,232.05935 c -14.5557,-2.74745 -22.20145,-7.32299 -25.36129,-15.17726 l -0.74857,-1.86072 -0.10196,-19.96642 -0.10185,-19.96644 1.02708,-2.8385 c 1.94663,-5.37982 5.71021,-9.41287 10.72278,-11.49061 l 2.39813,-0.99404 21.89826,-0.2271 21.89826,-0.2271 2.75754,-1.02562 c 3.50323,-1.30295 6.0553,-2.99028 8.92154,-5.89859 2.5446,-2.58197 4.06931,-4.9402 5.28403,-8.17269 0.78993,-2.1021 0.83132,-2.57785 1.06496,-12.24406 0.13368,-5.53134 0.25624,-10.31245 0.27232,-10.62471 0.0262,-0.50767 0.43259,-0.56626 3.8412,-0.55377 7.96279,0.0292 14.05716,0.52099 16.12737,1.30143 2.71727,1.02438 6.34031,4.68091 8.1793,8.25496 3.63048,7.05576 6.27512,20.84134 5.85007,30.49419 -0.53015,12.03863 -5.81896,25.95155 -11.38457,29.94846 -3.41651,2.45357 -3.39402,2.44964 -15.44689,2.69701 -5.97743,0.12268 -19.07989,0.2368 -29.11657,0.25362 l -18.24856,0.0306 v 2.06111 2.06112 l 2.48209,0.20982 c 1.36514,0.1154 9.39451,0.20981 17.84301,0.20981 h 15.36096 v 7.71789 c 0,10.51887 -0.64869,12.79627 -4.83075,16.96021 -3.56147,3.54604 -8.51703,5.98979 -16.07409,7.92663 -7.19645,1.84443 -18.09825,2.35176 -24.51378,1.14081 z m 33.05949,-12.28618 c 0.78574,-0.47232 1.72171,-1.25358 2.07987,-1.73612 0.82114,-1.10619 1.27617,-4.23491 0.84933,-5.83959 -1.35513,-5.09418 -8.8312,-6.12198 -11.6941,-1.60768 -0.75668,1.19319 -0.93645,1.84012 -0.93645,3.37007 0,1.04137 0.19668,2.36319 0.43705,2.93736 0.5523,1.31929 2.8338,3.39847 4.01553,3.65943 0.49518,0.1093 1.04633,0.23951 1.22474,0.28925 0.80216,0.22358 2.71642,-0.28672 4.02403,-1.07272 z"
       id="path1380" /></g></svg>
